<svg xmlns="http://www.w3.org/2000/svg" viewBox="0 0 30 30" xmlns:v="https://vecta.io/nano"><path d="M11.9 28a.87.87 0 0 1-.28-.05.77.77 0 0 1-.47-.8L12.37 18h-6a.92.92 0 0 1-.6-.29.75.75 0 0 1-.13-.65L8.76 4.83A3.74 3.74 0 0 1 12.39 2h7.35a.75.75 0 0 1 .7 1l-2.79 7.15h6a.69.69 0 0 1 .67.4.76.76 0 0 1-.05.78L12.51 27.69a.77.77 0 0 1-.61.31zm1.33-11.52a.73.73 0 0 1 .74.85l-.93 7 9.12-12.73h-5.6a.81.81 0 0 1-.63-.32.76.76 0 0 1-.08-.7l2.8-7.15h-6.26a2.26 2.26 0 0 0-2.18 1.7L7.34 16.5h5.89z" fill="#231f20"/><circle cx="22.61" cy="23.17" r="2.1" fill="#f27a21"/></svg>