<svg xmlns="http://www.w3.org/2000/svg" viewBox="0 0 30 30" xmlns:v="https://vecta.io/nano"><path d="M21.28 9.82h0V8.31a6.31 6.31 0 1 0-12.62 0v1.52A3.75 3.75 0 0 0 5 13.57v10.68A3.75 3.75 0 0 0 8.72 28h12.56A3.75 3.75 0 0 0 25 24.25V13.57a3.75 3.75 0 0 0-3.72-3.75zM14.93 3.5a4.82 4.82 0 0 1 4.81 4.81v1.51h-9.62V8.31a4.82 4.82 0 0 1 4.81-4.81zm8.6 20.75a2.25 2.25 0 0 1-2.25 2.25H8.72a2.25 2.25 0 0 1-2.25-2.25V13.57a2.25 2.25 0 0 1 2.25-2.25h12.56a2.25 2.25 0 0 1 2.25 2.25z" fill="#231f20"/><path d="M13 18.91h4v4h-4z" fill="#1c54d6"/></svg>