<svg xmlns="http://www.w3.org/2000/svg" viewBox="0 0 30 30" xmlns:v="https://vecta.io/nano"><path d="M17.5 18.32v4.73h-5v-4.73" fill="#1c54d6"/><path d="M27.25,2H2.75A.76.76,0,0,0,2,2.76V7.65a4.85,4.85,0,0,0,2,3.93V24.24A3.76,3.76,0,0,0,7.78,28h14.5A3.75,3.75,0,0,0,26,24.24V11.52a4.8,4.8,0,0,0,2-3.87V2.76A.76.76,0,0,0,27.25,2ZM24.53,24.24a2.25,2.25,0,0,1-2.25,2.25H7.78a2.25,2.25,0,0,1-2.25-2.25V12.29a5.11,5.11,0,0,0,1.3.2A4.88,4.88,0,0,0,10.34,11a4.36,4.36,0,0,0,.6-.76,4.81,4.81,0,0,0,8.14,0,4.85,4.85,0,0,0,4.09,2.25,4.72,4.72,0,0,0,1.36-.22Zm2-16.59a3.34,3.34,0,1,1-6.67,0,.75.75,0,1,0-1.5,0A3.34,3.34,0,0,1,15,11a3.38,3.38,0,0,1-3.33-3.36.76.76,0,0,0-.75-.73h0a.75.75,0,0,0-.72.77A3.16,3.16,0,0,1,9.26,10a3.41,3.41,0,0,1-2.43,1A3.34,3.34,0,0,1,3.5,7.65V3.51h23Z" fill="#231f20"/></svg>