<svg xmlns="http://www.w3.org/2000/svg" viewBox="0 0 30 30" xmlns:v="https://vecta.io/nano"><path d="M12 10.78h1.25 0a2.54 2.54 0 0 1 2.34 1.58H12v1.5h3.69a2.24 2.24 0 0 1-.59 1 4 4 0 0 1-3 .9l-.5 1.33 4.9 4 .95-1.16L14 17.09A4.67 4.67 0 0 0 16.14 16a3.64 3.64 0 0 0 1.07-2.08H18v-1.5h-.85a4.16 4.16 0 0 0-.8-1.6H18V9.28h-6zm12.72 14.57v-7.57h-1.5v7.74l-2.38-2.22-1 1.1 3.64 3.4a.74.74 0 0 0 .52.2h0a.77.77 0 0 0 .53-.24l3.25-3.48-1.1-1zM3.5 15a11.5 11.5 0 0 1 23 0H28a13 13 0 1 0-13 13v-1.5A11.51 11.51 0 0 1 3.5 15z" fill="#231f20"/><path d="M2.75 6.05h4v4h-4z" fill="#1c54d6"/></svg>