<svg xmlns="http://www.w3.org/2000/svg" viewBox="0 0 30 30" xmlns:v="https://vecta.io/nano"><circle cx="21.39" cy="20.92" r="2.1" fill="#40d0cb"/><path d="M27.85 13.14h0L25.87 5a3.77 3.77 0 0 0-4.52-2.81L4.9 6a3.75 3.75 0 0 0-2.34 1.67 3.8 3.8 0 0 0-.47 2.85l.41 1.72h0a3.79 3.79 0 0 0-.5 1.94v10a3.76 3.76 0 0 0 3.76 3.76h18.5A3.76 3.76 0 0 0 28 24.18v-10a3.59 3.59 0 0 0-.15-1.04zm-24-4.66a2.25 2.25 0 0 1 1.39-1L21.7 3.64a2.24 2.24 0 0 1 2.68 1.67l1.32 5.39a3.91 3.91 0 0 0-1.45-.29H5.75a3.73 3.73 0 0 0-2 .58l-.19-.82a2.28 2.28 0 0 1 .3-1.69zm22.63 15.7a2.24 2.24 0 0 1-2.24 2.23H5.75a2.24 2.24 0 0 1-2.24-2.23v-10a2.24 2.24 0 0 1 2.24-2.24h18.5a2.24 2.24 0 0 1 2.24 2.24zM6.51 15.17H23.5v1.5H6.51z" fill="#231f20"/></svg>