<svg xmlns="http://www.w3.org/2000/svg" viewBox="0 0 30 30" xmlns:v="https://vecta.io/nano"><path d="M22.12 2l-12.24.17a3.75 3.75 0 0 0-3.75 3.75v15.4H4.71a.76.76 0 0 0-.75.75v2.19A3.76 3.76 0 0 0 7.71 28h14.42 0a3.76 3.76 0 0 0 3.75-3.75V5.76A3.76 3.76 0 0 0 22.12 2zM7.71 26.51a2.25 2.25 0 0 1-2.25-2.25v-1.44h13.69v2.38a2.42 2.42 0 0 0 .37 1.31zm16.67-2.23a2.24 2.24 0 0 1-2.14 2.23h0c-.71 0-1.57-.58-1.57-1.31v-3.13a.76.76 0 0 0-.75-.75H7.63V5.92a2.26 2.26 0 0 1 2.26-2.25l12.24-.16a2.25 2.25 0 0 1 2.25 2.25zM11.36 6.68h9.66v1.5h-9.66zm0 4.39h9.66v1.5h-9.66z" fill="#231f20"/><circle cx="13.47" cy="16.95" r="2.1" fill="#f27a21"/></svg>